<svg width="100" height="100" viewBox="0 0 100 100" fill="none" xmlns="http://www.w3.org/2000/svg">
<path d="M85.3905 14.5374C80.7852 9.91042 75.3009 6.24209 69.2573 3.74622C63.2136 1.25035 56.7314 -0.0231429 50.1883 -5.78951e-05C22.7712 -5.78951e-05 0.426921 22.2374 0.401808 49.5374C0.401808 58.2812 2.69965 66.7874 7.03792 74.3187L0 99.9999L26.3938 93.1124C33.6954 97.0681 41.8755 99.1416 50.1883 99.1437H50.2134C77.6368 99.1437 99.9749 76.9062 100 49.5812C100.006 43.069 98.7181 36.6199 96.2096 30.6054C93.7012 24.591 90.022 19.1301 85.3842 14.5374H85.3905ZM50.1883 90.7562C42.7737 90.7587 35.4954 88.7724 29.1185 85.0062L27.6117 84.1062L11.9538 88.1937L16.1351 72.9874L15.1557 71.4187C11.0108 64.8582 8.81873 57.2626 8.8335 49.5124C8.8335 26.8499 27.3983 8.36244 50.2134 8.36244C55.6488 8.35273 61.0323 9.41416 66.0536 11.4855C71.0749 13.5569 75.6347 16.5972 79.4701 20.4312C83.3189 24.2502 86.37 28.7901 88.4475 33.7889C90.525 38.7877 91.5878 44.1465 91.5746 49.5562C91.5494 72.2999 72.9847 90.7562 50.1883 90.7562ZM72.8842 59.9187C71.6474 59.2999 65.5387 56.3062 64.3897 55.8812C63.2471 55.4749 62.4121 55.2624 61.5959 56.4999C60.7609 57.7312 58.3752 60.5374 57.6595 61.3437C56.9437 62.1749 56.2029 62.2687 54.9598 61.6562C53.723 61.0312 49.7112 59.7312 44.9648 55.4999C41.2607 52.2187 38.7808 48.1562 38.0399 46.9249C37.3242 45.6874 37.9709 45.0249 38.5924 44.4062C39.1386 43.8562 39.8292 42.9562 40.4508 42.2437C41.0786 41.5312 41.2858 41.0062 41.6939 40.1812C42.1019 39.3437 41.9073 38.6312 41.5997 38.0124C41.2858 37.3937 38.8059 31.2874 37.7574 28.8249C36.7529 26.3937 35.7295 26.7312 34.9636 26.6999C34.2479 26.6562 33.4128 26.6562 32.5778 26.6562C31.9473 26.6718 31.3268 26.817 30.7552 27.0826C30.1837 27.3483 29.6735 27.7287 29.2566 28.1999C28.114 29.4374 24.9184 32.4312 24.9184 38.5374C24.9184 44.6437 29.3759 50.5124 30.0038 51.3437C30.619 52.1749 38.7556 64.6687 51.2431 70.0437C54.1939 71.3249 56.5168 72.0812 58.3312 72.6562C61.3134 73.6062 64.0068 73.4624 66.1539 73.1562C68.5397 72.7937 73.5058 70.1562 74.5542 67.2624C75.5839 64.3624 75.5839 61.8874 75.2699 61.3687C74.9623 60.8437 74.1273 60.5374 72.8842 59.9187Z" fill="black"/>
</svg>
